<svg width="14" height="15" viewBox="0 0 14 15" fill="none" xmlns="http://www.w3.org/2000/svg">
<path d="M6.3 11H7.7V6.8H6.3V11ZM7 5.4C7.19833 5.4 7.36458 5.33292 7.49875 5.19875C7.63292 5.06458 7.7 4.89833 7.7 4.7C7.7 4.50167 7.63292 4.33542 7.49875 4.20125C7.36458 4.06708 7.19833 4 7 4C6.80167 4 6.63542 4.06708 6.50125 4.20125C6.36708 4.33542 6.3 4.50167 6.3 4.7C6.3 4.89833 6.36708 5.06458 6.50125 5.19875C6.63542 5.33292 6.80167 5.4 7 5.4ZM7 14.5C6.03167 14.5 5.12167 14.3162 4.27 13.9488C3.41833 13.5813 2.6775 13.0825 2.0475 12.4525C1.4175 11.8225 0.91875 11.0817 0.55125 10.23C0.18375 9.37833 0 8.46833 0 7.5C0 6.53167 0.18375 5.62167 0.55125 4.77C0.91875 3.91833 1.4175 3.1775 2.0475 2.5475C2.6775 1.9175 3.41833 1.41875 4.27 1.05125C5.12167 0.68375 6.03167 0.5 7 0.5C7.96833 0.5 8.87833 0.68375 9.73 1.05125C10.5817 1.41875 11.3225 1.9175 11.9525 2.5475C12.5825 3.1775 13.0813 3.91833 13.4488 4.77C13.8162 5.62167 14 6.53167 14 7.5C14 8.46833 13.8162 9.37833 13.4488 10.23C13.0813 11.0817 12.5825 11.8225 11.9525 12.4525C11.3225 13.0825 10.5817 13.5813 9.73 13.9488C8.87833 14.3162 7.96833 14.5 7 14.5Z" fill="#007AFF"/>
</svg>
