<svg width="12" height="18" viewBox="0 0 12 18" fill="none" xmlns="http://www.w3.org/2000/svg">
<path d="M6.0013 17.3307C5.80686 17.3307 5.64019 17.2752 5.5013 17.1641C5.36241 17.0529 5.25825 16.9071 5.1888 16.7266C4.92491 15.9488 4.59158 15.2196 4.1888 14.5391C3.79991 13.8585 3.2513 13.0599 2.54297 12.1432C1.83464 11.2266 1.25825 10.3516 0.813802 9.51823C0.383247 8.6849 0.167969 7.67795 0.167969 6.49739C0.167969 4.87239 0.730469 3.4974 1.85547 2.37239C2.99436 1.23351 4.3763 0.664062 6.0013 0.664062C7.6263 0.664062 9.0013 1.23351 10.1263 2.37239C11.2652 3.4974 11.8346 4.87239 11.8346 6.49739C11.8346 7.76128 11.5916 8.81684 11.1055 9.66406C10.6332 10.4974 10.0846 11.3238 9.45964 12.1432C8.70964 13.1432 8.14019 13.9766 7.7513 14.6432C7.3763 15.296 7.0638 15.9905 6.8138 16.7266C6.74436 16.921 6.63325 17.0738 6.48047 17.1849C6.34158 17.2821 6.18186 17.3307 6.0013 17.3307ZM6.0013 14.3516C6.23741 13.8793 6.5013 13.4141 6.79297 12.9557C7.09852 12.4974 7.54297 11.8863 8.1263 11.1224C8.72353 10.3446 9.20963 9.62934 9.58463 8.97656C9.97352 8.30989 10.168 7.48351 10.168 6.49739C10.168 5.34462 9.75825 4.36545 8.9388 3.5599C8.13325 2.74045 7.15408 2.33073 6.0013 2.33073C4.84852 2.33073 3.86241 2.74045 3.04297 3.5599C2.23741 4.36545 1.83464 5.34462 1.83464 6.49739C1.83464 7.48351 2.02214 8.30989 2.39714 8.97656C2.78602 9.62934 3.27908 10.3446 3.8763 11.1224C4.45964 11.8863 4.89714 12.4974 5.1888 12.9557C5.49436 13.4141 5.76519 13.8793 6.0013 14.3516ZM6.0013 8.58073C6.58464 8.58073 7.07769 8.37934 7.48047 7.97656C7.88325 7.57378 8.08464 7.08073 8.08464 6.49739C8.08464 5.91406 7.88325 5.42101 7.48047 5.01823C7.07769 4.61545 6.58464 4.41406 6.0013 4.41406C5.41797 4.41406 4.92491 4.61545 4.52214 5.01823C4.11936 5.42101 3.91797 5.91406 3.91797 6.49739C3.91797 7.08073 4.11936 7.57378 4.52214 7.97656C4.92491 8.37934 5.41797 8.58073 6.0013 8.58073Z" fill="#667185"/>
</svg>
