<svg width="22" height="14" viewBox="0 0 22 14" fill="none" xmlns="http://www.w3.org/2000/svg">
<path d="M11 9.69231C12.215 9.69231 13.2 10.6566 13.2 11.8462C13.2 13.0357 12.215 14 11 14C10.5856 14 10.198 13.8878 9.86706 13.6928L6.6 11.8462L9.86711 9.99945C10.198 9.80447 10.5856 9.69231 11 9.69231ZM11 0C17.0751 0 22 4.82155 22 10.7692V12.3846H16.5V10.7692C16.5 7.79542 14.0375 5.38462 11 5.38462C7.96241 5.38462 5.5 7.79542 5.5 10.7692V12.3846H0V10.7692C0 4.82155 4.92487 0 11 0ZM20.35 10.7692C20.35 8.43828 19.46 6.31082 17.9947 4.69474L16.4355 6.22128C17.5044 7.44466 18.15 9.03312 18.15 10.7692H20.35ZM4.79375 3.92264L6.35294 5.44912C7.46928 4.51365 8.88355 3.90907 10.4371 3.79061V1.6317C8.27668 1.75732 6.31367 2.60109 4.79375 3.92264ZM15.6586 5.45887L17.2176 3.93255C15.6901 2.60007 13.7132 1.75092 11.5371 1.63025V3.78872C13.1062 3.90282 14.5344 4.51269 15.6586 5.45887ZM1.65 10.7692H3.85C3.85 9.02774 4.49955 7.43481 5.57441 6.20997L4.01538 4.68359C2.54402 6.30102 1.65 8.43295 1.65 10.7692Z" fill="#6E7A89"/>
</svg>
